<?xml version="1.0" encoding="UTF-8" standalone="no"?>
<!DOCTYPE svg PUBLIC "-//W3C//DTD SVG 1.1//EN"
 "http://www.w3.org/Graphics/SVG/1.1/DTD/svg11.dtd">
<!-- Generated by graphviz version 2.40.1 (20161225.0304)
 -->
<!-- Title: %3 Pages: 1 -->
<svg width="604pt" height="404pt"
 viewBox="0.00 0.00 604.12 404.00" xmlns="http://www.w3.org/2000/svg" xmlns:xlink="http://www.w3.org/1999/xlink">
<g id="graph0" class="graph" transform="scale(1 1) rotate(0) translate(4 400)">
<title>%3</title>
<polygon fill="#ffffff" stroke="transparent" points="-4,4 -4,-400 600.1232,-400 600.1232,4 -4,4"/>
<!-- [root] google_compute_instance.firstserver -->
<g id="node1" class="node">
<title>[root] google_compute_instance.firstserver</title>
<polygon fill="none" stroke="#000000" points="325.3099,-252 103.9774,-252 103.9774,-216 325.3099,-216 325.3099,-252"/>
<text text-anchor="middle" x="214.6437" y="-229.8" font-family="Times,serif" font-size="14.00" fill="#000000">google_compute_instance.firstserver</text>
</g>
<!-- [root] google_compute_subnetwork.dev&#45;subnet -->
<g id="node3" class="node">
<title>[root] google_compute_subnetwork.dev&#45;subnet</title>
<polygon fill="none" stroke="#000000" points="357.7065,-180 111.5808,-180 111.5808,-144 357.7065,-144 357.7065,-180"/>
<text text-anchor="middle" x="234.6437" y="-157.8" font-family="Times,serif" font-size="14.00" fill="#000000">google_compute_subnetwork.dev&#45;subnet</text>
</g>
<!-- [root] google_compute_instance.firstserver&#45;&gt;[root] google_compute_subnetwork.dev&#45;subnet -->
<g id="edge1" class="edge">
<title>[root] google_compute_instance.firstserver&#45;&gt;[root] google_compute_subnetwork.dev&#45;subnet</title>
<path fill="none" stroke="#000000" d="M219.6905,-215.8314C221.853,-208.0463 224.429,-198.7729 226.8285,-190.1347"/>
<polygon fill="#000000" stroke="#000000" points="230.2247,-190.9852 229.5289,-180.4133 223.48,-189.1117 230.2247,-190.9852"/>
</g>
<!-- [root] google_compute_network.our_development_network -->
<g id="node2" class="node">
<title>[root] google_compute_network.our_development_network</title>
<polygon fill="none" stroke="#000000" points="402.6792,-108 86.6082,-108 86.6082,-72 402.6792,-72 402.6792,-108"/>
<text text-anchor="middle" x="244.6437" y="-85.8" font-family="Times,serif" font-size="14.00" fill="#000000">google_compute_network.our_development_network</text>
</g>
<!-- [root] provider.google -->
<g id="node5" class="node">
<title>[root] provider.google</title>
<polygon fill="none" stroke="#000000" points="337.6437,-36 244.3573,-18 337.6437,0 430.9301,-18 337.6437,-36"/>
<text text-anchor="middle" x="337.6437" y="-13.8" font-family="Times,serif" font-size="14.00" fill="#000000">provider.google</text>
</g>
<!-- [root] google_compute_network.our_development_network&#45;&gt;[root] provider.google -->
<g id="edge2" class="edge">
<title>[root] google_compute_network.our_development_network&#45;&gt;[root] provider.google</title>
<path fill="none" stroke="#000000" d="M268.1115,-71.8314C281.1233,-61.7577 297.3541,-49.1919 310.8609,-38.735"/>
<polygon fill="#000000" stroke="#000000" points="313.1011,-41.4271 318.8657,-32.5378 308.8158,-35.892 313.1011,-41.4271"/>
</g>
<!-- [root] google_compute_subnetwork.dev&#45;subnet&#45;&gt;[root] google_compute_network.our_development_network -->
<g id="edge3" class="edge">
<title>[root] google_compute_subnetwork.dev&#45;subnet&#45;&gt;[root] google_compute_network.our_development_network</title>
<path fill="none" stroke="#000000" d="M237.1671,-143.8314C238.2366,-136.131 239.5083,-126.9743 240.6969,-118.4166"/>
<polygon fill="#000000" stroke="#000000" points="244.1772,-118.7997 242.0863,-108.4133 237.2438,-117.8367 244.1772,-118.7997"/>
</g>
<!-- [root] google_container_cluster.kubey -->
<g id="node4" class="node">
<title>[root] google_container_cluster.kubey</title>
<polygon fill="none" stroke="#000000" points="538.0963,-252 343.191,-252 343.191,-216 538.0963,-216 538.0963,-252"/>
<text text-anchor="middle" x="440.6437" y="-229.8" font-family="Times,serif" font-size="14.00" fill="#000000">google_container_cluster.kubey</text>
</g>
<!-- [root] google_container_cluster.kubey&#45;&gt;[root] provider.google -->
<g id="edge4" class="edge">
<title>[root] google_container_cluster.kubey&#45;&gt;[root] provider.google</title>
<path fill="none" stroke="#000000" d="M441.607,-215.9279C442.4355,-184.2669 440.2719,-117.7882 411.6437,-72 402.3572,-57.1472 387.3639,-45.0793 373.2932,-36.1492"/>
<polygon fill="#000000" stroke="#000000" points="375.086,-33.1432 364.7107,-30.9976 371.4834,-39.145 375.086,-33.1432"/>
</g>
<!-- [root] meta.count&#45;boundary (EachMode fixup) -->
<g id="node6" class="node">
<title>[root] meta.count&#45;boundary (EachMode fixup)</title>
<ellipse fill="none" stroke="#000000" cx="174.6437" cy="-306" rx="174.7874" ry="18"/>
<text text-anchor="middle" x="174.6437" y="-301.8" font-family="Times,serif" font-size="14.00" fill="#000000">[root] meta.count&#45;boundary (EachMode fixup)</text>
</g>
<!-- [root] meta.count&#45;boundary (EachMode fixup)&#45;&gt;[root] google_compute_instance.firstserver -->
<g id="edge5" class="edge">
<title>[root] meta.count&#45;boundary (EachMode fixup)&#45;&gt;[root] google_compute_instance.firstserver</title>
<path fill="none" stroke="#000000" d="M184.7373,-287.8314C189.2034,-279.7925 194.5511,-270.1666 199.4815,-261.2918"/>
<polygon fill="#000000" stroke="#000000" points="202.6171,-262.8546 204.4141,-252.4133 196.498,-259.4551 202.6171,-262.8546"/>
</g>
<!-- [root] meta.count&#45;boundary (EachMode fixup)&#45;&gt;[root] google_container_cluster.kubey -->
<g id="edge6" class="edge">
<title>[root] meta.count&#45;boundary (EachMode fixup)&#45;&gt;[root] google_container_cluster.kubey</title>
<path fill="none" stroke="#000000" d="M237.0088,-289.1192C275.0276,-278.8284 323.8944,-265.6013 364.2276,-254.6841"/>
<polygon fill="#000000" stroke="#000000" points="365.2812,-258.0249 374.0194,-252.0336 363.4522,-251.268 365.2812,-258.0249"/>
</g>
<!-- [root] provider.google (close) -->
<g id="node7" class="node">
<title>[root] provider.google (close)</title>
<ellipse fill="none" stroke="#000000" cx="481.6437" cy="-306" rx="114.4592" ry="18"/>
<text text-anchor="middle" x="481.6437" y="-301.8" font-family="Times,serif" font-size="14.00" fill="#000000">[root] provider.google (close)</text>
</g>
<!-- [root] provider.google (close)&#45;&gt;[root] google_compute_instance.firstserver -->
<g id="edge7" class="edge">
<title>[root] provider.google (close)&#45;&gt;[root] google_compute_instance.firstserver</title>
<path fill="none" stroke="#000000" d="M423.7086,-290.3771C384.8637,-279.902 333.2916,-265.995 291.0892,-254.6145"/>
<polygon fill="#000000" stroke="#000000" points="291.9746,-251.2283 281.4082,-252.0039 290.152,-257.9869 291.9746,-251.2283"/>
</g>
<!-- [root] provider.google (close)&#45;&gt;[root] google_container_cluster.kubey -->
<g id="edge8" class="edge">
<title>[root] provider.google (close)&#45;&gt;[root] google_container_cluster.kubey</title>
<path fill="none" stroke="#000000" d="M471.2976,-287.8314C466.7199,-279.7925 461.2385,-270.1666 456.1848,-261.2918"/>
<polygon fill="#000000" stroke="#000000" points="459.1189,-259.3712 451.129,-252.4133 453.036,-262.8351 459.1189,-259.3712"/>
</g>
<!-- [root] root -->
<g id="node8" class="node">
<title>[root] root</title>
<ellipse fill="none" stroke="#000000" cx="327.6437" cy="-378" rx="46.8976" ry="18"/>
<text text-anchor="middle" x="327.6437" y="-373.8" font-family="Times,serif" font-size="14.00" fill="#000000">[root] root</text>
</g>
<!-- [root] root&#45;&gt;[root] meta.count&#45;boundary (EachMode fixup) -->
<g id="edge9" class="edge">
<title>[root] root&#45;&gt;[root] meta.count&#45;boundary (EachMode fixup)</title>
<path fill="none" stroke="#000000" d="M297.7805,-363.9468C276.0346,-353.7134 246.1587,-339.6541 221.2808,-327.9469"/>
<polygon fill="#000000" stroke="#000000" points="222.5566,-324.6791 212.0181,-323.588 219.576,-331.0129 222.5566,-324.6791"/>
</g>
<!-- [root] root&#45;&gt;[root] provider.google (close) -->
<g id="edge10" class="edge">
<title>[root] root&#45;&gt;[root] provider.google (close)</title>
<path fill="none" stroke="#000000" d="M357.702,-363.9468C379.9005,-353.5683 410.516,-339.2545 435.7642,-327.4501"/>
<polygon fill="#000000" stroke="#000000" points="437.5729,-330.4682 445.1493,-323.0623 434.6081,-324.127 437.5729,-330.4682"/>
</g>
</g>
</svg>
